<svg width="1200" height="630" viewBox="0 0 1200 630" fill="none" xmlns="http://www.w3.org/2000/svg">
  <rect width="1200" height="630" fill="#f5f1ea"/>
  <rect x="80" y="70" width="1040" height="490" rx="24" fill="#151515"/>
  <rect x="112" y="112" width="976" height="64" rx="14" fill="#272727"/>
  <circle cx="146" cy="144" r="9" fill="#ff6b4a"/>
  <circle cx="174" cy="144" r="9" fill="#e9b949"/>
  <circle cx="202" cy="144" r="9" fill="#53c27b"/>
  <rect x="238" y="129" width="354" height="30" rx="15" fill="#f5f1ea"/>
  <text x="265" y="150" fill="#151515" font-family="Arial, Helvetica, sans-serif" font-size="18" font-weight="700">typo3-camino-vercel.vercel.app</text>
  <rect x="112" y="204" width="370" height="286" rx="18" fill="#ff8700"/>
  <path d="M183 281h102v28h-34v111h-34V309h-34v-28Zm131 0h89v28h-55v28h47v27h-47v56h-34V281Z" fill="#151515"/>
  <rect x="530" y="210" width="486" height="32" rx="16" fill="#fbf2ee"/>
  <rect x="530" y="274" width="420" height="22" rx="11" fill="#d8cec0"/>
  <rect x="530" y="320" width="470" height="22" rx="11" fill="#d8cec0"/>
  <rect x="530" y="366" width="332" height="22" rx="11" fill="#d8cec0"/>
  <rect x="530" y="432" width="180" height="52" rx="12" fill="#fbf2ee"/>
  <text x="141" y="535" fill="#fbf2ee" font-family="Arial, Helvetica, sans-serif" font-size="28" font-weight="700">TYPO3 Camino on Vercel</text>
  <text x="530" y="535" fill="#fbf2ee" font-family="Arial, Helvetica, sans-serif" font-size="24">TYPO3 14.3 + PHP 8.4 + Vercel Container Images</text>
</svg>
